<mxfile host="app.diagrams.net" modified="2023-05-18T19:07:02.377Z" agent="Mozilla/5.0 (Macintosh; Intel Mac OS X 10_15_7) AppleWebKit/537.36 (KHTML, like Gecko) Chrome/113.0.0.0 Safari/537.36" etag="gDUUdoBDXvhK-7t-1Rsx" version="21.3.2" type="github">
  <diagram name="Страница 1" id="1mQfnVptky6M1AJZzH7_">
    <mxGraphModel dx="2726" dy="1994" grid="0" gridSize="10" guides="1" tooltips="1" connect="1" arrows="1" fold="1" page="0" pageScale="1" pageWidth="1169" pageHeight="827" math="0" shadow="0">
      <root>
        <mxCell id="0" />
        <mxCell id="1" parent="0" />
      </root>
    </mxGraphModel>
  </diagram>
</mxfile>
